<?xml version="1.0" encoding="UTF-8" standalone="no"?>
<!DOCTYPE svg PUBLIC "-//W3C//DTD SVG 1.1//EN"
 "http://www.w3.org/Graphics/SVG/1.1/DTD/svg11.dtd">
<!-- Generated by graphviz version 2.43.0 (0)
 -->
<!-- Title: %3 Pages: 1 -->
<svg width="253pt" height="163pt"
 viewBox="0.00 0.00 253.21 162.64" xmlns="http://www.w3.org/2000/svg" xmlns:xlink="http://www.w3.org/1999/xlink">
<g id="graph0" class="graph" transform="scale(1 1) rotate(0) translate(4 158.64)">
<title>%3</title>
<polygon fill="white" stroke="transparent" points="-4,4 -4,-158.64 249.21,-158.64 249.21,4 -4,4"/>
<!-- 0 -->
<g id="node1" class="node">
<title>0</title>
<polygon fill="none" stroke="black" points="54,-97.93 0,-97.93 0,-61.93 54,-61.93 54,-97.93"/>
<text text-anchor="middle" x="27" y="-76.23" font-family="Times,serif" font-size="14.00">0</text>
</g>
<!-- 1 -->
<g id="node2" class="node">
<title>1</title>
<ellipse fill="none" stroke="black" cx="99.21" cy="-80.41" rx="27" ry="18"/>
<text text-anchor="middle" x="99.21" y="-76.71" font-family="Times,serif" font-size="14.00">1</text>
</g>
<!-- 0&#45;&#45;1 -->
<g id="edge1" class="edge">
<title>0&#45;&#45;1</title>
<path fill="none" stroke="black" d="M54.3,-80.11C60.05,-80.15 66.12,-80.19 71.87,-80.23"/>
</g>
<!-- 4 -->
<g id="node5" class="node">
<title>4</title>
<ellipse fill="none" stroke="black" cx="63.59" cy="-18" rx="27" ry="18"/>
<text text-anchor="middle" x="63.59" y="-14.3" font-family="Times,serif" font-size="14.00">4</text>
</g>
<!-- 0&#45;&#45;4 -->
<g id="edge5" class="edge">
<title>0&#45;&#45;4</title>
<path fill="none" stroke="black" d="M37.78,-61.69C42.76,-53.27 48.63,-43.33 53.51,-35.06"/>
</g>
<!-- 2 -->
<g id="node3" class="node">
<title>2</title>
<ellipse fill="none" stroke="black" cx="147" cy="-136.64" rx="27" ry="18"/>
<text text-anchor="middle" x="147" y="-132.94" font-family="Times,serif" font-size="14.00">2</text>
</g>
<!-- 2&#45;&#45;2 -->
<g id="edge2" class="edge">
<title>2&#45;&#45;2</title>
<path fill="none" stroke="black" d="M172.44,-143.33C183.03,-143.79 192,-141.56 192,-136.64 192,-131.72 183.03,-129.49 172.44,-129.95"/>
</g>
<!-- 3 -->
<g id="node4" class="node">
<title>3</title>
<ellipse fill="none" stroke="black" cx="218.21" cy="-126" rx="27" ry="18"/>
<text text-anchor="middle" x="218.21" y="-122.3" font-family="Times,serif" font-size="14.00">3</text>
</g>
<!-- 3&#45;&#45;2 -->
<g id="edge3" class="edge">
<title>3&#45;&#45;2</title>
<path fill="none" stroke="black" d="M191.69,-129.96C185.84,-130.84 179.64,-131.76 173.78,-132.64"/>
</g>
<!-- 4&#45;&#45;1 -->
<g id="edge4" class="edge">
<title>4&#45;&#45;1</title>
<path fill="none" stroke="black" d="M67.11,-36.02C71.22,-45.34 77.5,-56.55 83.52,-65.4"/>
</g>
<!-- 4&#45;&#45;1 -->
<g id="edge6" class="edge">
<title>4&#45;&#45;1</title>
<path fill="none" stroke="black" d="M79.27,-32.98C85.25,-41.78 91.5,-52.92 95.62,-62.22"/>
</g>
</g>
</svg>
