<?xml version="1.0" encoding="UTF-8" standalone="no"?>
<!DOCTYPE svg PUBLIC "-//W3C//DTD SVG 1.1//EN"
 "http://www.w3.org/Graphics/SVG/1.1/DTD/svg11.dtd">
<!-- Generated by graphviz version 2.43.0 (0)
 -->
<!-- Title: %3 Pages: 1 -->
<svg width="253pt" height="163pt"
 viewBox="0.00 0.00 253.21 162.64" xmlns="http://www.w3.org/2000/svg" xmlns:xlink="http://www.w3.org/1999/xlink">
<g id="graph0" class="graph" transform="scale(1 1) rotate(0) translate(4 158.64)">
<title>%3</title>
<polygon fill="white" stroke="transparent" points="-4,4 -4,-158.64 249.21,-158.64 249.21,4 -4,4"/>
<!-- 0 -->
<g id="node1" class="node">
<title>0</title>
<polygon fill="none" stroke="black" points="54,-97.93 0,-97.93 0,-61.93 54,-61.93 54,-97.93"/>
<text text-anchor="middle" x="27" y="-76.23" font-family="Times,serif" font-size="14.00">0</text>
</g>
<!-- 1 -->
<g id="node2" class="node">
<title>1</title>
<ellipse fill="none" stroke="black" cx="99.21" cy="-80.41" rx="27" ry="18"/>
<text text-anchor="middle" x="99.21" y="-76.71" font-family="Times,serif" font-size="14.00">1</text>
</g>
<!-- 0&#45;&gt;1 -->
<g id="edge1" class="edge">
<title>0&#45;&gt;1</title>
<path fill="none" stroke="black" d="M54.3,-80.11C56.72,-80.13 59.21,-80.15 61.7,-80.16"/>
<polygon fill="black" stroke="black" points="61.85,-83.66 71.87,-80.23 61.89,-76.66 61.85,-83.66"/>
</g>
<!-- 4 -->
<g id="node5" class="node">
<title>4</title>
<ellipse fill="none" stroke="black" cx="63.59" cy="-18" rx="27" ry="18"/>
<text text-anchor="middle" x="63.59" y="-14.3" font-family="Times,serif" font-size="14.00">4</text>
</g>
<!-- 0&#45;&gt;4 -->
<g id="edge6" class="edge">
<title>0&#45;&gt;4</title>
<path fill="none" stroke="black" d="M37.78,-61.69C41.05,-56.16 44.7,-49.98 48.2,-44.05"/>
<polygon fill="black" stroke="black" points="51.44,-45.45 53.51,-35.06 45.41,-41.89 51.44,-45.45"/>
</g>
<!-- 1&#45;&gt;4 -->
<g id="edge5" class="edge">
<title>1&#45;&gt;4</title>
<path fill="none" stroke="black" d="M95.69,-62.39C92.86,-55.98 89.01,-48.68 84.93,-41.87"/>
<polygon fill="black" stroke="black" points="87.61,-39.56 79.28,-33.01 81.7,-43.32 87.61,-39.56"/>
</g>
<!-- 2 -->
<g id="node3" class="node">
<title>2</title>
<ellipse fill="none" stroke="black" cx="147" cy="-136.64" rx="27" ry="18"/>
<text text-anchor="middle" x="147" y="-132.94" font-family="Times,serif" font-size="14.00">2</text>
</g>
<!-- 2&#45;&gt;2 -->
<g id="edge2" class="edge">
<title>2&#45;&gt;2</title>
<path fill="none" stroke="black" d="M172.44,-143.33C183.03,-143.79 192,-141.56 192,-136.64 192,-133.41 188.14,-131.34 182.49,-130.43"/>
<polygon fill="black" stroke="black" points="182.6,-126.93 172.44,-129.95 182.27,-133.92 182.6,-126.93"/>
</g>
<!-- 3 -->
<g id="node4" class="node">
<title>3</title>
<ellipse fill="none" stroke="black" cx="218.21" cy="-126" rx="27" ry="18"/>
<text text-anchor="middle" x="218.21" y="-122.3" font-family="Times,serif" font-size="14.00">3</text>
</g>
<!-- 3&#45;&gt;2 -->
<g id="edge3" class="edge">
<title>3&#45;&gt;2</title>
<path fill="none" stroke="black" d="M191.69,-129.96C189.13,-130.34 186.51,-130.74 183.87,-131.13"/>
<polygon fill="black" stroke="black" points="183.15,-127.7 173.78,-132.64 184.18,-134.62 183.15,-127.7"/>
</g>
<!-- 4&#45;&gt;1 -->
<g id="edge4" class="edge">
<title>4&#45;&gt;1</title>
<path fill="none" stroke="black" d="M67.11,-36.02C69.94,-42.43 73.79,-49.73 77.87,-56.54"/>
<polygon fill="black" stroke="black" points="75.19,-58.85 83.52,-65.4 81.09,-55.08 75.19,-58.85"/>
</g>
</g>
</svg>
