<?xml version="1.0" encoding="UTF-8" standalone="no"?>
<!DOCTYPE svg PUBLIC "-//W3C//DTD SVG 1.1//EN"
 "http://www.w3.org/Graphics/SVG/1.1/DTD/svg11.dtd">
<!-- Generated by graphviz version 2.43.0 (0)
 -->
<!-- Title: %3 Pages: 1 -->
<svg width="250pt" height="264pt"
 viewBox="0.00 0.00 250.48 264.10" xmlns="http://www.w3.org/2000/svg" xmlns:xlink="http://www.w3.org/1999/xlink">
<g id="graph0" class="graph" transform="scale(1 1) rotate(0) translate(4 260.1)">
<title>%3</title>
<polygon fill="white" stroke="transparent" points="-4,4 -4,-260.1 246.48,-260.1 246.48,4 -4,4"/>
<!-- H -->
<g id="node1" class="node">
<title>H</title>
<polygon fill="aqua" stroke="black" points="102.67,-60.27 63.37,-60.27 51.22,-97.65 39.08,-60.27 -0.22,-60.27 31.57,-37.16 19.43,0.22 51.22,-22.89 83.02,0.22 70.87,-37.16 102.67,-60.27"/>
<text text-anchor="middle" x="51.22" y="-45.01" font-family="Times,serif" font-size="14.00">H</text>
</g>
<!-- B -->
<g id="node2" class="node">
<title>B</title>
<polygon fill="aqua" stroke="black" points="171.11,-92.21 131.81,-92.21 119.67,-129.59 107.52,-92.21 68.22,-92.21 100.02,-69.11 87.87,-31.73 119.67,-54.83 151.46,-31.73 139.32,-69.11 171.11,-92.21"/>
<text text-anchor="middle" x="119.67" y="-76.96" font-family="Times,serif" font-size="14.00">B</text>
</g>
<!-- H&#45;&#45;B -->
<g id="edge1" class="edge">
<title>H&#45;&#45;B</title>
<path fill="none" stroke="red" d="M75.93,-60.25C83.13,-63.61 90.94,-67.25 97.94,-70.52"/>
<text text-anchor="middle" x="80.44" y="-49.38" font-family="Times,serif" font-size="20.00">2</text>
</g>
<!-- G -->
<g id="node3" class="node">
<title>G</title>
<polygon fill="aqua" stroke="black" points="105.06,-133.88 65.76,-133.88 53.62,-171.25 41.48,-133.88 2.18,-133.88 33.97,-110.77 21.83,-73.39 53.62,-96.5 85.41,-73.39 73.27,-110.77 105.06,-133.88"/>
<text text-anchor="middle" x="53.62" y="-118.62" font-family="Times,serif" font-size="14.00">G</text>
</g>
<!-- H&#45;&#45;G -->
<g id="edge2" class="edge">
<title>H&#45;&#45;G</title>
<path fill="none" stroke="red" d="M52.67,-93.23C52.7,-94.08 52.73,-94.92 52.75,-95.76"/>
<text text-anchor="middle" x="39.71" y="-78.49" font-family="Times,serif" font-size="20.00">14</text>
</g>
<!-- C -->
<g id="node7" class="node">
<title>C</title>
<polygon fill="aqua" stroke="black" points="231.76,-141.59 192.46,-141.59 180.31,-178.97 168.17,-141.59 128.87,-141.59 160.66,-118.49 148.52,-81.11 180.31,-104.21 212.11,-81.11 199.96,-118.49 231.76,-141.59"/>
<text text-anchor="middle" x="180.31" y="-126.34" font-family="Times,serif" font-size="14.00">C</text>
</g>
<!-- B&#45;&#45;C -->
<g id="edge12" class="edge">
<title>B&#45;&#45;C</title>
<path fill="none" stroke="red" d="M134.04,-92.36C141.33,-98.29 150.33,-105.62 158.45,-112.24"/>
<text text-anchor="middle" x="139.75" y="-86.3" font-family="Times,serif" font-size="20.00">2</text>
</g>
<!-- A -->
<g id="node8" class="node">
<title>A</title>
<polygon fill="aqua" stroke="black" points="242.71,-68.59 203.41,-68.59 191.26,-105.97 179.12,-68.59 139.82,-68.59 171.61,-45.49 159.47,-8.11 191.26,-31.21 223.06,-8.11 210.91,-45.49 242.71,-68.59"/>
<text text-anchor="middle" x="191.26" y="-53.34" font-family="Times,serif" font-size="14.00">A</text>
</g>
<!-- B&#45;&#45;A -->
<g id="edge14" class="edge">
<title>B&#45;&#45;A</title>
<path fill="none" stroke="red" d="M144.31,-72.53C148.19,-71.25 152.27,-69.9 156.33,-68.56"/>
<text text-anchor="middle" x="143.82" y="-54.55" font-family="Times,serif" font-size="20.00">1</text>
</g>
<!-- G&#45;&#45;B -->
<g id="edge3" class="edge">
<title>G&#45;&#45;B</title>
<path fill="none" stroke="red" d="M73.8,-109.6C82.6,-104.04 92.84,-97.58 101.41,-92.18"/>
<text text-anchor="middle" x="81.1" y="-106.89" font-family="Times,serif" font-size="20.00">4</text>
</g>
<!-- F -->
<g id="node4" class="node">
<title>F</title>
<polygon fill="aqua" stroke="black" points="121.48,-213.68 82.18,-213.68 70.04,-251.06 57.89,-213.68 18.59,-213.68 50.39,-190.58 38.24,-153.2 70.04,-176.3 101.83,-153.2 89.69,-190.58 121.48,-213.68"/>
<text text-anchor="middle" x="70.04" y="-198.43" font-family="Times,serif" font-size="14.00">F</text>
</g>
<!-- G&#45;&#45;F -->
<g id="edge4" class="edge">
<title>G&#45;&#45;F</title>
<path fill="none" stroke="red" d="M59.83,-152.49C61.12,-158.76 62.48,-165.37 63.77,-171.65"/>
<text text-anchor="middle" x="55.3" y="-146.07" font-family="Times,serif" font-size="20.00">6</text>
</g>
<!-- D -->
<g id="node5" class="node">
<title>D</title>
<polygon fill="aqua" stroke="black" points="166.76,-165.53 127.46,-165.53 115.32,-202.91 103.17,-165.53 63.87,-165.53 95.67,-142.43 83.52,-105.05 115.32,-128.15 147.11,-105.05 134.97,-142.43 166.76,-165.53"/>
<text text-anchor="middle" x="115.32" y="-150.28" font-family="Times,serif" font-size="14.00">D</text>
</g>
<!-- G&#45;&#45;D -->
<g id="edge5" class="edge">
<title>G&#45;&#45;D</title>
<path fill="none" stroke="red" d="M76.24,-133.93C82.16,-136.97 88.51,-140.22 94.34,-143.21"/>
<text text-anchor="middle" x="78.79" y="-144.57" font-family="Times,serif" font-size="20.00">1</text>
</g>
<!-- F&#45;&#45;D -->
<g id="edge6" class="edge">
<title>F&#45;&#45;D</title>
<path fill="none" stroke="red" d="M94.27,-176.36C97.47,-172.96 100.62,-169.61 103.47,-166.57"/>
<text text-anchor="middle" x="92.37" y="-177.47" font-family="Times,serif" font-size="20.00">3</text>
</g>
<!-- E -->
<g id="node6" class="node">
<title>E</title>
<polygon fill="aqua" stroke="black" points="205.4,-218.94 166.1,-218.94 153.95,-256.32 141.81,-218.94 102.51,-218.94 134.3,-195.84 122.16,-158.46 153.95,-181.56 185.75,-158.46 173.6,-195.84 205.4,-218.94"/>
<text text-anchor="middle" x="153.95" y="-203.69" font-family="Times,serif" font-size="14.00">E</text>
</g>
<!-- F&#45;&#45;E -->
<g id="edge7" class="edge">
<title>F&#45;&#45;E</title>
<path fill="none" stroke="red" d="M109.05,-204.57C113.16,-204.83 117.3,-205.09 121.33,-205.34"/>
<text text-anchor="middle" x="108.69" y="-210.96" font-family="Times,serif" font-size="20.00">1</text>
</g>
<!-- D&#45;&#45;B -->
<g id="edge9" class="edge">
<title>D&#45;&#45;B</title>
<path fill="none" stroke="red" d="M116.91,-127.09C117.02,-125.38 117.12,-123.63 117.22,-121.87"/>
<text text-anchor="middle" x="110.57" y="-108.48" font-family="Times,serif" font-size="20.00">9</text>
</g>
<!-- D&#45;&#45;E -->
<g id="edge8" class="edge">
<title>D&#45;&#45;E</title>
<path fill="none" stroke="red" d="M126.29,-169.14C126.38,-169.26 126.47,-169.39 126.56,-169.51"/>
<text text-anchor="middle" x="119.92" y="-175.33" font-family="Times,serif" font-size="20.00">1</text>
</g>
<!-- D&#45;&#45;C -->
<g id="edge10" class="edge">
<title>D&#45;&#45;C</title>
<path fill="none" stroke="red" d="M139.15,-145.2C142.34,-144.02 145.65,-142.81 148.94,-141.59"/>
<text text-anchor="middle" x="137.55" y="-149.4" font-family="Times,serif" font-size="20.00">1</text>
</g>
<!-- E&#45;&#45;C -->
<g id="edge11" class="edge">
<title>E&#45;&#45;C</title>
<path fill="none" stroke="red" d="M165.75,-172.78C167.88,-166.51 170.07,-160.09 172.08,-154.2"/>
<text text-anchor="middle" x="175.41" y="-147.49" font-family="Times,serif" font-size="20.00">3</text>
</g>
<!-- C&#45;&#45;A -->
<g id="edge13" class="edge">
<title>C&#45;&#45;A</title>
<path fill="none" stroke="red" d="M184.7,-100.77C185.2,-97.43 185.72,-94.02 186.22,-90.64"/>
<text text-anchor="middle" x="178.96" y="-79.7" font-family="Times,serif" font-size="20.00">4</text>
</g>
</g>
</svg>
