<?xml version="1.0" encoding="UTF-8" standalone="no"?>
<!DOCTYPE svg PUBLIC "-//W3C//DTD SVG 1.1//EN"
 "http://www.w3.org/Graphics/SVG/1.1/DTD/svg11.dtd">
<!-- Generated by graphviz version 2.43.0 (0)
 -->
<!-- Title: %3 Pages: 1 -->
<svg width="758pt" height="609pt"
 viewBox="0.00 0.00 758.44 609.43" xmlns="http://www.w3.org/2000/svg" xmlns:xlink="http://www.w3.org/1999/xlink">
<g id="graph0" class="graph" transform="scale(1 1) rotate(0) translate(4 605.43)">
<title>%3</title>
<polygon fill="white" stroke="transparent" points="-4,4 -4,-605.43 754.44,-605.43 754.44,4 -4,4"/>
<!-- H -->
<g id="node1" class="node">
<title>H</title>
<polygon fill="aqua" stroke="black" points="318.67,-564.27 279.37,-564.27 267.22,-601.65 255.08,-564.27 215.78,-564.27 247.57,-541.16 235.43,-503.78 267.22,-526.89 299.02,-503.78 286.87,-541.16 318.67,-564.27"/>
<text text-anchor="middle" x="267.22" y="-549.01" font-family="Times,serif" font-size="14.00">H</text>
</g>
<!-- B -->
<g id="node2" class="node">
<title>B</title>
<polygon fill="aqua" stroke="black" points="534.67,-564.27 495.37,-564.27 483.22,-601.65 471.08,-564.27 431.78,-564.27 463.57,-541.16 451.43,-503.78 483.22,-526.89 515.02,-503.78 502.87,-541.16 534.67,-564.27"/>
<text text-anchor="middle" x="483.22" y="-549.01" font-family="Times,serif" font-size="14.00">B</text>
</g>
<!-- H&#45;&#45;B -->
<g id="edge1" class="edge">
<title>H&#45;&#45;B</title>
<path fill="none" stroke="red" d="M302.89,-552.71C342.91,-552.71 407.46,-552.71 447.5,-552.71"/>
<text text-anchor="middle" x="368.7" y="-558.71" font-family="Times,serif" font-size="20.00">2</text>
</g>
<!-- G -->
<g id="node3" class="node">
<title>G</title>
<polygon fill="aqua" stroke="black" points="174.67,-420.27 135.37,-420.27 123.22,-457.65 111.08,-420.27 71.78,-420.27 103.57,-397.16 91.43,-359.78 123.22,-382.89 155.02,-359.78 142.87,-397.16 174.67,-420.27"/>
<text text-anchor="middle" x="123.22" y="-405.01" font-family="Times,serif" font-size="14.00">G</text>
</g>
<!-- H&#45;&#45;G -->
<g id="edge2" class="edge">
<title>H&#45;&#45;G</title>
<path fill="none" stroke="red" d="M243.77,-529.26C212.68,-498.18 159.01,-444.5 135.2,-420.69"/>
<text text-anchor="middle" x="176.48" y="-480.97" font-family="Times,serif" font-size="20.00">14</text>
</g>
<!-- C -->
<g id="node7" class="node">
<title>C</title>
<polygon fill="aqua" stroke="black" points="534.67,-276.27 495.37,-276.27 483.22,-313.65 471.08,-276.27 431.78,-276.27 463.57,-253.16 451.43,-215.78 483.22,-238.89 515.02,-215.78 502.87,-253.16 534.67,-276.27"/>
<text text-anchor="middle" x="483.22" y="-261.01" font-family="Times,serif" font-size="14.00">C</text>
</g>
<!-- B&#45;&#45;C -->
<g id="edge12" class="edge">
<title>B&#45;&#45;C</title>
<path fill="none" stroke="red" d="M483.22,-526.9C483.22,-478.93 483.22,-375.3 483.22,-313.66"/>
<text text-anchor="middle" x="476.72" y="-426.28" font-family="Times,serif" font-size="20.00">2</text>
</g>
<!-- A -->
<g id="node8" class="node">
<title>A</title>
<polygon fill="aqua" stroke="black" points="750.67,-348.27 711.37,-348.27 699.22,-385.65 687.08,-348.27 647.78,-348.27 679.57,-325.16 667.43,-287.78 699.22,-310.89 731.02,-287.78 718.87,-325.16 750.67,-348.27"/>
<text text-anchor="middle" x="699.22" y="-333.01" font-family="Times,serif" font-size="14.00">A</text>
</g>
<!-- B&#45;&#45;A -->
<g id="edge14" class="edge">
<title>B&#45;&#45;A</title>
<path fill="none" stroke="red" d="M506.75,-529.19C552.67,-483.26 652.77,-383.17 687.26,-348.68"/>
<text text-anchor="middle" x="590.5" y="-444.93" font-family="Times,serif" font-size="20.00">1</text>
</g>
<!-- G&#45;&#45;B -->
<g id="edge3" class="edge">
<title>G&#45;&#45;B</title>
<path fill="none" stroke="red" d="M152.07,-420.26C221.48,-448.02 396.71,-518.11 459.98,-543.42"/>
<text text-anchor="middle" x="299.53" y="-487.84" font-family="Times,serif" font-size="20.00">4</text>
</g>
<!-- F -->
<g id="node4" class="node">
<title>F</title>
<polygon fill="aqua" stroke="black" points="102.67,-132.27 63.37,-132.27 51.22,-169.65 39.08,-132.27 -0.22,-132.27 31.57,-109.16 19.43,-71.78 51.22,-94.89 83.02,-71.78 70.87,-109.16 102.67,-132.27"/>
<text text-anchor="middle" x="51.22" y="-117.01" font-family="Times,serif" font-size="14.00">F</text>
</g>
<!-- G&#45;&#45;F -->
<g id="edge4" class="edge">
<title>G&#45;&#45;F</title>
<path fill="none" stroke="red" d="M115.31,-377.07C101.14,-320.37 71.64,-202.39 58.18,-148.56"/>
<text text-anchor="middle" x="80.25" y="-268.82" font-family="Times,serif" font-size="20.00">6</text>
</g>
<!-- D -->
<g id="node5" class="node">
<title>D</title>
<polygon fill="aqua" stroke="black" points="318.67,-276.27 279.37,-276.27 267.22,-313.65 255.08,-276.27 215.78,-276.27 247.57,-253.16 235.43,-215.78 267.22,-238.89 299.02,-215.78 286.87,-253.16 318.67,-276.27"/>
<text text-anchor="middle" x="267.22" y="-261.01" font-family="Times,serif" font-size="14.00">D</text>
</g>
<!-- G&#45;&#45;D -->
<g id="edge5" class="edge">
<title>G&#45;&#45;D</title>
<path fill="none" stroke="red" d="M146.68,-385.26C177.76,-354.18 231.43,-300.5 255.25,-276.69"/>
<text text-anchor="middle" x="194.46" y="-336.97" font-family="Times,serif" font-size="20.00">1</text>
</g>
<!-- F&#45;&#45;D -->
<g id="edge6" class="edge">
<title>F&#45;&#45;D</title>
<path fill="none" stroke="red" d="M68.53,-132.26C107.98,-158.55 204.37,-222.82 246.71,-251.04"/>
<text text-anchor="middle" x="151.12" y="-197.65" font-family="Times,serif" font-size="20.00">3</text>
</g>
<!-- E -->
<g id="node6" class="node">
<title>E</title>
<polygon fill="aqua" stroke="black" points="390.67,-60.27 351.37,-60.27 339.22,-97.65 327.08,-60.27 287.78,-60.27 319.57,-37.16 307.43,0.22 339.22,-22.89 371.02,0.22 358.87,-37.16 390.67,-60.27"/>
<text text-anchor="middle" x="339.22" y="-45.01" font-family="Times,serif" font-size="14.00">E</text>
</g>
<!-- F&#45;&#45;E -->
<g id="edge7" class="edge">
<title>F&#45;&#45;E</title>
<path fill="none" stroke="red" d="M77.8,-114.07C126.89,-101.8 232.3,-75.45 293.21,-60.22"/>
<text text-anchor="middle" x="179" y="-93.14" font-family="Times,serif" font-size="20.00">1</text>
</g>
<!-- D&#45;&#45;B -->
<g id="edge9" class="edge">
<title>D&#45;&#45;B</title>
<path fill="none" stroke="red" d="M278.53,-279.79C311.34,-323.54 407.27,-451.45 455.24,-515.41"/>
<text text-anchor="middle" x="360.39" y="-403.6" font-family="Times,serif" font-size="20.00">9</text>
</g>
<!-- D&#45;&#45;E -->
<g id="edge8" class="edge">
<title>D&#45;&#45;E</title>
<path fill="none" stroke="red" d="M278.63,-230.49C293.26,-186.59 318.28,-111.55 331.11,-73.06"/>
<text text-anchor="middle" x="298.37" y="-157.77" font-family="Times,serif" font-size="20.00">1</text>
</g>
<!-- D&#45;&#45;C -->
<g id="edge10" class="edge">
<title>D&#45;&#45;C</title>
<path fill="none" stroke="red" d="M302.89,-264.71C342.91,-264.71 407.46,-264.71 447.5,-264.71"/>
<text text-anchor="middle" x="368.7" y="-270.71" font-family="Times,serif" font-size="20.00">1</text>
</g>
<!-- E&#45;&#45;C -->
<g id="edge11" class="edge">
<title>E&#45;&#45;C</title>
<path fill="none" stroke="red" d="M350.05,-64.95C371.5,-97.13 420.12,-170.06 452.3,-218.33"/>
<text text-anchor="middle" x="394.67" y="-147.64" font-family="Times,serif" font-size="20.00">3</text>
</g>
<!-- C&#45;&#45;A -->
<g id="edge13" class="edge">
<title>C&#45;&#45;A</title>
<path fill="none" stroke="red" d="M517.93,-276.28C561.81,-290.91 636.27,-315.73 674.68,-328.53"/>
<text text-anchor="middle" x="589.8" y="-308.41" font-family="Times,serif" font-size="20.00">4</text>
</g>
</g>
</svg>
